<mxfile host="65bd71144e" scale="2" border="25">
    <diagram id="DKvhhIhJwhFmudzz6W4t" name="Page-1">
        <mxGraphModel dx="937" dy="705" grid="1" gridSize="10" guides="1" tooltips="1" connect="1" arrows="1" fold="1" page="1" pageScale="1" pageWidth="827" pageHeight="1169" math="0" shadow="0">
            <root>
                <mxCell id="0"/>
                <mxCell id="1" parent="0"/>
                <mxCell id="NX6QIthS7Zr30zZ4aL8O-28" style="edgeStyle=none;rounded=0;orthogonalLoop=1;jettySize=auto;html=1;startArrow=classic;startFill=1;" parent="1" source="NX6QIthS7Zr30zZ4aL8O-1" target="NX6QIthS7Zr30zZ4aL8O-2" edge="1">
                    <mxGeometry relative="1" as="geometry"/>
                </mxCell>
                <mxCell id="NX6QIthS7Zr30zZ4aL8O-29" style="edgeStyle=none;rounded=0;orthogonalLoop=1;jettySize=auto;html=1;startArrow=classic;startFill=1;" parent="1" source="NX6QIthS7Zr30zZ4aL8O-1" target="NX6QIthS7Zr30zZ4aL8O-3" edge="1">
                    <mxGeometry relative="1" as="geometry"/>
                </mxCell>
                <mxCell id="NX6QIthS7Zr30zZ4aL8O-1" value="" style="ellipse;whiteSpace=wrap;html=1;aspect=fixed;" parent="1" vertex="1">
                    <mxGeometry x="244" y="647" width="80" height="80" as="geometry"/>
                </mxCell>
                <mxCell id="NX6QIthS7Zr30zZ4aL8O-30" style="edgeStyle=none;rounded=0;orthogonalLoop=1;jettySize=auto;html=1;startArrow=classic;startFill=1;" parent="1" source="NX6QIthS7Zr30zZ4aL8O-2" target="NX6QIthS7Zr30zZ4aL8O-3" edge="1">
                    <mxGeometry relative="1" as="geometry"/>
                </mxCell>
                <mxCell id="NX6QIthS7Zr30zZ4aL8O-34" style="edgeStyle=none;rounded=0;orthogonalLoop=1;jettySize=auto;html=1;startArrow=classic;startFill=1;" parent="1" source="NX6QIthS7Zr30zZ4aL8O-2" target="NX6QIthS7Zr30zZ4aL8O-5" edge="1">
                    <mxGeometry relative="1" as="geometry"/>
                </mxCell>
                <mxCell id="NX6QIthS7Zr30zZ4aL8O-2" value="" style="ellipse;whiteSpace=wrap;html=1;aspect=fixed;" parent="1" vertex="1">
                    <mxGeometry x="388" y="588" width="80" height="80" as="geometry"/>
                </mxCell>
                <mxCell id="NX6QIthS7Zr30zZ4aL8O-31" style="edgeStyle=none;rounded=0;orthogonalLoop=1;jettySize=auto;html=1;startArrow=classic;startFill=1;" parent="1" source="NX6QIthS7Zr30zZ4aL8O-3" target="NX6QIthS7Zr30zZ4aL8O-6" edge="1">
                    <mxGeometry relative="1" as="geometry"/>
                </mxCell>
                <mxCell id="NX6QIthS7Zr30zZ4aL8O-33" style="edgeStyle=none;rounded=0;orthogonalLoop=1;jettySize=auto;html=1;startArrow=classic;startFill=1;" parent="1" source="NX6QIthS7Zr30zZ4aL8O-3" target="NX6QIthS7Zr30zZ4aL8O-5" edge="1">
                    <mxGeometry relative="1" as="geometry"/>
                </mxCell>
                <mxCell id="NX6QIthS7Zr30zZ4aL8O-3" value="" style="ellipse;whiteSpace=wrap;html=1;aspect=fixed;" parent="1" vertex="1">
                    <mxGeometry x="447" y="444" width="80" height="80" as="geometry"/>
                </mxCell>
                <mxCell id="NX6QIthS7Zr30zZ4aL8O-9" style="rounded=0;orthogonalLoop=1;jettySize=auto;html=1;startArrow=classic;startFill=1;" parent="1" source="NX6QIthS7Zr30zZ4aL8O-4" target="NX6QIthS7Zr30zZ4aL8O-3" edge="1">
                    <mxGeometry relative="1" as="geometry"/>
                </mxCell>
                <mxCell id="NX6QIthS7Zr30zZ4aL8O-10" style="edgeStyle=none;rounded=0;orthogonalLoop=1;jettySize=auto;html=1;startArrow=classic;startFill=1;" parent="1" source="NX6QIthS7Zr30zZ4aL8O-4" target="NX6QIthS7Zr30zZ4aL8O-2" edge="1">
                    <mxGeometry relative="1" as="geometry"/>
                </mxCell>
                <mxCell id="NX6QIthS7Zr30zZ4aL8O-11" style="edgeStyle=none;rounded=0;orthogonalLoop=1;jettySize=auto;html=1;startArrow=classic;startFill=1;" parent="1" source="NX6QIthS7Zr30zZ4aL8O-4" target="NX6QIthS7Zr30zZ4aL8O-1" edge="1">
                    <mxGeometry relative="1" as="geometry"/>
                </mxCell>
                <mxCell id="NX6QIthS7Zr30zZ4aL8O-12" style="edgeStyle=none;rounded=0;orthogonalLoop=1;jettySize=auto;html=1;startArrow=classic;startFill=1;" parent="1" source="NX6QIthS7Zr30zZ4aL8O-4" target="NX6QIthS7Zr30zZ4aL8O-8" edge="1">
                    <mxGeometry relative="1" as="geometry"/>
                </mxCell>
                <mxCell id="NX6QIthS7Zr30zZ4aL8O-13" style="edgeStyle=none;rounded=0;orthogonalLoop=1;jettySize=auto;html=1;startArrow=classic;startFill=1;" parent="1" source="NX6QIthS7Zr30zZ4aL8O-4" target="NX6QIthS7Zr30zZ4aL8O-7" edge="1">
                    <mxGeometry relative="1" as="geometry"/>
                </mxCell>
                <mxCell id="NX6QIthS7Zr30zZ4aL8O-14" style="edgeStyle=none;rounded=0;orthogonalLoop=1;jettySize=auto;html=1;startArrow=classic;startFill=1;" parent="1" source="NX6QIthS7Zr30zZ4aL8O-4" target="NX6QIthS7Zr30zZ4aL8O-5" edge="1">
                    <mxGeometry relative="1" as="geometry"/>
                </mxCell>
                <mxCell id="NX6QIthS7Zr30zZ4aL8O-15" style="edgeStyle=none;rounded=0;orthogonalLoop=1;jettySize=auto;html=1;startArrow=classic;startFill=1;" parent="1" source="NX6QIthS7Zr30zZ4aL8O-4" target="NX6QIthS7Zr30zZ4aL8O-6" edge="1">
                    <mxGeometry relative="1" as="geometry"/>
                </mxCell>
                <mxCell id="NX6QIthS7Zr30zZ4aL8O-4" value="" style="ellipse;whiteSpace=wrap;html=1;aspect=fixed;" parent="1" vertex="1">
                    <mxGeometry x="388" y="300" width="80" height="80" as="geometry"/>
                </mxCell>
                <mxCell id="NX6QIthS7Zr30zZ4aL8O-32" style="edgeStyle=none;rounded=0;orthogonalLoop=1;jettySize=auto;html=1;startArrow=classic;startFill=1;" parent="1" source="NX6QIthS7Zr30zZ4aL8O-5" target="NX6QIthS7Zr30zZ4aL8O-1" edge="1">
                    <mxGeometry relative="1" as="geometry"/>
                </mxCell>
                <mxCell id="NX6QIthS7Zr30zZ4aL8O-5" value="" style="ellipse;whiteSpace=wrap;html=1;aspect=fixed;" parent="1" vertex="1">
                    <mxGeometry x="244" y="240" width="80" height="80" as="geometry"/>
                </mxCell>
                <mxCell id="NX6QIthS7Zr30zZ4aL8O-16" style="edgeStyle=none;rounded=0;orthogonalLoop=1;jettySize=auto;html=1;startArrow=classic;startFill=1;" parent="1" source="NX6QIthS7Zr30zZ4aL8O-6" target="NX6QIthS7Zr30zZ4aL8O-5" edge="1">
                    <mxGeometry relative="1" as="geometry"/>
                </mxCell>
                <mxCell id="NX6QIthS7Zr30zZ4aL8O-17" style="edgeStyle=none;rounded=0;orthogonalLoop=1;jettySize=auto;html=1;startArrow=classic;startFill=1;" parent="1" source="NX6QIthS7Zr30zZ4aL8O-6" target="NX6QIthS7Zr30zZ4aL8O-7" edge="1">
                    <mxGeometry relative="1" as="geometry"/>
                </mxCell>
                <mxCell id="NX6QIthS7Zr30zZ4aL8O-18" style="edgeStyle=none;rounded=0;orthogonalLoop=1;jettySize=auto;html=1;startArrow=classic;startFill=1;" parent="1" source="NX6QIthS7Zr30zZ4aL8O-6" target="NX6QIthS7Zr30zZ4aL8O-8" edge="1">
                    <mxGeometry relative="1" as="geometry"/>
                </mxCell>
                <mxCell id="NX6QIthS7Zr30zZ4aL8O-19" style="edgeStyle=none;rounded=0;orthogonalLoop=1;jettySize=auto;html=1;startArrow=classic;startFill=1;" parent="1" source="NX6QIthS7Zr30zZ4aL8O-6" target="NX6QIthS7Zr30zZ4aL8O-1" edge="1">
                    <mxGeometry relative="1" as="geometry"/>
                </mxCell>
                <mxCell id="NX6QIthS7Zr30zZ4aL8O-20" style="edgeStyle=none;rounded=0;orthogonalLoop=1;jettySize=auto;html=1;startArrow=classic;startFill=1;" parent="1" source="NX6QIthS7Zr30zZ4aL8O-6" target="NX6QIthS7Zr30zZ4aL8O-2" edge="1">
                    <mxGeometry relative="1" as="geometry"/>
                </mxCell>
                <mxCell id="NX6QIthS7Zr30zZ4aL8O-6" value="" style="ellipse;whiteSpace=wrap;html=1;aspect=fixed;" parent="1" vertex="1">
                    <mxGeometry x="100" y="300" width="80" height="80" as="geometry"/>
                </mxCell>
                <mxCell id="NX6QIthS7Zr30zZ4aL8O-21" style="edgeStyle=none;rounded=0;orthogonalLoop=1;jettySize=auto;html=1;startArrow=classic;startFill=1;" parent="1" source="NX6QIthS7Zr30zZ4aL8O-7" target="NX6QIthS7Zr30zZ4aL8O-8" edge="1">
                    <mxGeometry relative="1" as="geometry"/>
                </mxCell>
                <mxCell id="NX6QIthS7Zr30zZ4aL8O-22" style="edgeStyle=none;rounded=0;orthogonalLoop=1;jettySize=auto;html=1;startArrow=classic;startFill=1;" parent="1" source="NX6QIthS7Zr30zZ4aL8O-7" target="NX6QIthS7Zr30zZ4aL8O-1" edge="1">
                    <mxGeometry relative="1" as="geometry"/>
                </mxCell>
                <mxCell id="NX6QIthS7Zr30zZ4aL8O-23" style="edgeStyle=none;rounded=0;orthogonalLoop=1;jettySize=auto;html=1;startArrow=classic;startFill=1;" parent="1" source="NX6QIthS7Zr30zZ4aL8O-7" target="NX6QIthS7Zr30zZ4aL8O-2" edge="1">
                    <mxGeometry relative="1" as="geometry"/>
                </mxCell>
                <mxCell id="NX6QIthS7Zr30zZ4aL8O-24" style="edgeStyle=none;rounded=0;orthogonalLoop=1;jettySize=auto;html=1;startArrow=classic;startFill=1;" parent="1" source="NX6QIthS7Zr30zZ4aL8O-7" target="NX6QIthS7Zr30zZ4aL8O-3" edge="1">
                    <mxGeometry relative="1" as="geometry"/>
                </mxCell>
                <mxCell id="NX6QIthS7Zr30zZ4aL8O-36" style="edgeStyle=none;rounded=0;orthogonalLoop=1;jettySize=auto;html=1;startArrow=classic;startFill=1;" parent="1" source="NX6QIthS7Zr30zZ4aL8O-7" target="NX6QIthS7Zr30zZ4aL8O-5" edge="1">
                    <mxGeometry relative="1" as="geometry"/>
                </mxCell>
                <mxCell id="NX6QIthS7Zr30zZ4aL8O-7" value="" style="ellipse;whiteSpace=wrap;html=1;aspect=fixed;" parent="1" vertex="1">
                    <mxGeometry x="40" y="444" width="80" height="80" as="geometry"/>
                </mxCell>
                <mxCell id="NX6QIthS7Zr30zZ4aL8O-25" style="edgeStyle=none;rounded=0;orthogonalLoop=1;jettySize=auto;html=1;startArrow=classic;startFill=1;" parent="1" source="NX6QIthS7Zr30zZ4aL8O-8" target="NX6QIthS7Zr30zZ4aL8O-1" edge="1">
                    <mxGeometry relative="1" as="geometry"/>
                </mxCell>
                <mxCell id="NX6QIthS7Zr30zZ4aL8O-26" style="edgeStyle=none;rounded=0;orthogonalLoop=1;jettySize=auto;html=1;startArrow=classic;startFill=1;" parent="1" source="NX6QIthS7Zr30zZ4aL8O-8" target="NX6QIthS7Zr30zZ4aL8O-2" edge="1">
                    <mxGeometry relative="1" as="geometry"/>
                </mxCell>
                <mxCell id="NX6QIthS7Zr30zZ4aL8O-27" style="edgeStyle=none;rounded=0;orthogonalLoop=1;jettySize=auto;html=1;startArrow=classic;startFill=1;" parent="1" source="NX6QIthS7Zr30zZ4aL8O-8" target="NX6QIthS7Zr30zZ4aL8O-3" edge="1">
                    <mxGeometry relative="1" as="geometry"/>
                </mxCell>
                <mxCell id="NX6QIthS7Zr30zZ4aL8O-35" style="edgeStyle=none;rounded=0;orthogonalLoop=1;jettySize=auto;html=1;startArrow=classic;startFill=1;" parent="1" source="NX6QIthS7Zr30zZ4aL8O-8" target="NX6QIthS7Zr30zZ4aL8O-5" edge="1">
                    <mxGeometry relative="1" as="geometry"/>
                </mxCell>
                <mxCell id="NX6QIthS7Zr30zZ4aL8O-8" value="" style="ellipse;whiteSpace=wrap;html=1;aspect=fixed;" parent="1" vertex="1">
                    <mxGeometry x="100" y="588" width="80" height="80" as="geometry"/>
                </mxCell>
                <mxCell id="NX6QIthS7Zr30zZ4aL8O-37" value="边: n(n-1)/2" style="text;html=1;strokeColor=none;fillColor=none;align=left;verticalAlign=middle;whiteSpace=wrap;rounded=0;fontSize=24;fontColor=#FF0000;" parent="1" vertex="1">
                    <mxGeometry x="560" y="380" width="130" height="20" as="geometry"/>
                </mxCell>
                <mxCell id="NX6QIthS7Zr30zZ4aL8O-40" style="edgeStyle=none;rounded=0;orthogonalLoop=1;jettySize=auto;html=1;startArrow=classic;startFill=1;" parent="1" source="NX6QIthS7Zr30zZ4aL8O-38" target="NX6QIthS7Zr30zZ4aL8O-39" edge="1">
                    <mxGeometry relative="1" as="geometry"/>
                </mxCell>
                <mxCell id="NX6QIthS7Zr30zZ4aL8O-38" value="" style="ellipse;whiteSpace=wrap;html=1;aspect=fixed;" parent="1" vertex="1">
                    <mxGeometry x="40" y="120" width="80" height="80" as="geometry"/>
                </mxCell>
                <mxCell id="NX6QIthS7Zr30zZ4aL8O-39" value="" style="ellipse;whiteSpace=wrap;html=1;aspect=fixed;" parent="1" vertex="1">
                    <mxGeometry x="280" y="120" width="80" height="80" as="geometry"/>
                </mxCell>
                <mxCell id="NX6QIthS7Zr30zZ4aL8O-45" style="edgeStyle=none;rounded=0;orthogonalLoop=1;jettySize=auto;html=1;startArrow=classic;startFill=1;" parent="1" source="NX6QIthS7Zr30zZ4aL8O-41" target="NX6QIthS7Zr30zZ4aL8O-42" edge="1">
                    <mxGeometry relative="1" as="geometry"/>
                </mxCell>
                <mxCell id="NX6QIthS7Zr30zZ4aL8O-46" style="edgeStyle=none;rounded=0;orthogonalLoop=1;jettySize=auto;html=1;startArrow=classic;startFill=1;" parent="1" source="NX6QIthS7Zr30zZ4aL8O-41" target="NX6QIthS7Zr30zZ4aL8O-43" edge="1">
                    <mxGeometry relative="1" as="geometry"/>
                </mxCell>
                <mxCell id="NX6QIthS7Zr30zZ4aL8O-41" value="" style="ellipse;whiteSpace=wrap;html=1;aspect=fixed;" parent="1" vertex="1">
                    <mxGeometry x="480" y="60" width="80" height="80" as="geometry"/>
                </mxCell>
                <mxCell id="NX6QIthS7Zr30zZ4aL8O-42" value="" style="ellipse;whiteSpace=wrap;html=1;aspect=fixed;" parent="1" vertex="1">
                    <mxGeometry x="680" y="60" width="80" height="80" as="geometry"/>
                </mxCell>
                <mxCell id="NX6QIthS7Zr30zZ4aL8O-44" style="edgeStyle=none;rounded=0;orthogonalLoop=1;jettySize=auto;html=1;startArrow=classic;startFill=1;" parent="1" source="NX6QIthS7Zr30zZ4aL8O-43" target="NX6QIthS7Zr30zZ4aL8O-42" edge="1">
                    <mxGeometry relative="1" as="geometry"/>
                </mxCell>
                <mxCell id="NX6QIthS7Zr30zZ4aL8O-43" value="" style="ellipse;whiteSpace=wrap;html=1;aspect=fixed;" parent="1" vertex="1">
                    <mxGeometry x="580" y="170" width="80" height="80" as="geometry"/>
                </mxCell>
                <mxCell id="NX6QIthS7Zr30zZ4aL8O-47" value="100*99/2 = 49950" style="text;html=1;strokeColor=none;fillColor=none;align=left;verticalAlign=middle;whiteSpace=wrap;rounded=0;fontSize=24;" parent="1" vertex="1">
                    <mxGeometry x="560" y="500" width="250" height="20" as="geometry"/>
                </mxCell>
                <mxCell id="NX6QIthS7Zr30zZ4aL8O-48" value="10*9/2=45" style="text;html=1;strokeColor=none;fillColor=none;align=left;verticalAlign=middle;whiteSpace=wrap;rounded=0;fontSize=24;" parent="1" vertex="1">
                    <mxGeometry x="560" y="460" width="130" height="20" as="geometry"/>
                </mxCell>
                <mxCell id="NX6QIthS7Zr30zZ4aL8O-50" value="5*4/2=10" style="text;html=1;strokeColor=none;fillColor=none;align=left;verticalAlign=middle;whiteSpace=wrap;rounded=0;fontSize=24;" parent="1" vertex="1">
                    <mxGeometry x="560" y="420" width="130" height="20" as="geometry"/>
                </mxCell>
                <mxCell id="NX6QIthS7Zr30zZ4aL8O-63" style="edgeStyle=none;rounded=0;orthogonalLoop=1;jettySize=auto;html=1;startArrow=classic;startFill=1;fontSize=24;fontColor=#FF0000;" parent="1" source="NX6QIthS7Zr30zZ4aL8O-51" target="NX6QIthS7Zr30zZ4aL8O-59" edge="1">
                    <mxGeometry relative="1" as="geometry"/>
                </mxCell>
                <mxCell id="NX6QIthS7Zr30zZ4aL8O-51" value="" style="ellipse;whiteSpace=wrap;html=1;aspect=fixed;" parent="1" vertex="1">
                    <mxGeometry x="527" y="1087" width="80" height="80" as="geometry"/>
                </mxCell>
                <mxCell id="NX6QIthS7Zr30zZ4aL8O-62" style="edgeStyle=none;rounded=0;orthogonalLoop=1;jettySize=auto;html=1;startArrow=classic;startFill=1;fontSize=24;fontColor=#FF0000;" parent="1" source="NX6QIthS7Zr30zZ4aL8O-52" target="NX6QIthS7Zr30zZ4aL8O-59" edge="1">
                    <mxGeometry relative="1" as="geometry"/>
                </mxCell>
                <mxCell id="NX6QIthS7Zr30zZ4aL8O-52" value="" style="ellipse;whiteSpace=wrap;html=1;aspect=fixed;" parent="1" vertex="1">
                    <mxGeometry x="671" y="1028" width="80" height="80" as="geometry"/>
                </mxCell>
                <mxCell id="NX6QIthS7Zr30zZ4aL8O-61" style="edgeStyle=none;rounded=0;orthogonalLoop=1;jettySize=auto;html=1;startArrow=classic;startFill=1;fontSize=24;fontColor=#FF0000;" parent="1" source="NX6QIthS7Zr30zZ4aL8O-53" target="NX6QIthS7Zr30zZ4aL8O-59" edge="1">
                    <mxGeometry relative="1" as="geometry"/>
                </mxCell>
                <mxCell id="NX6QIthS7Zr30zZ4aL8O-53" value="" style="ellipse;whiteSpace=wrap;html=1;aspect=fixed;" parent="1" vertex="1">
                    <mxGeometry x="730" y="884" width="80" height="80" as="geometry"/>
                </mxCell>
                <mxCell id="NX6QIthS7Zr30zZ4aL8O-60" style="edgeStyle=none;rounded=0;orthogonalLoop=1;jettySize=auto;html=1;startArrow=classic;startFill=1;fontSize=24;fontColor=#FF0000;" parent="1" source="NX6QIthS7Zr30zZ4aL8O-54" target="NX6QIthS7Zr30zZ4aL8O-59" edge="1">
                    <mxGeometry relative="1" as="geometry"/>
                </mxCell>
                <mxCell id="NX6QIthS7Zr30zZ4aL8O-54" value="" style="ellipse;whiteSpace=wrap;html=1;aspect=fixed;" parent="1" vertex="1">
                    <mxGeometry x="671" y="740" width="80" height="80" as="geometry"/>
                </mxCell>
                <mxCell id="NX6QIthS7Zr30zZ4aL8O-67" style="edgeStyle=none;rounded=0;orthogonalLoop=1;jettySize=auto;html=1;startArrow=classic;startFill=1;fontSize=24;fontColor=#FF0000;" parent="1" source="NX6QIthS7Zr30zZ4aL8O-55" target="NX6QIthS7Zr30zZ4aL8O-59" edge="1">
                    <mxGeometry relative="1" as="geometry"/>
                </mxCell>
                <mxCell id="NX6QIthS7Zr30zZ4aL8O-55" value="" style="ellipse;whiteSpace=wrap;html=1;aspect=fixed;" parent="1" vertex="1">
                    <mxGeometry x="527" y="680" width="80" height="80" as="geometry"/>
                </mxCell>
                <mxCell id="NX6QIthS7Zr30zZ4aL8O-66" style="edgeStyle=none;rounded=0;orthogonalLoop=1;jettySize=auto;html=1;startArrow=classic;startFill=1;fontSize=24;fontColor=#FF0000;" parent="1" source="NX6QIthS7Zr30zZ4aL8O-56" target="NX6QIthS7Zr30zZ4aL8O-59" edge="1">
                    <mxGeometry relative="1" as="geometry"/>
                </mxCell>
                <mxCell id="NX6QIthS7Zr30zZ4aL8O-56" value="" style="ellipse;whiteSpace=wrap;html=1;aspect=fixed;" parent="1" vertex="1">
                    <mxGeometry x="383" y="740" width="80" height="80" as="geometry"/>
                </mxCell>
                <mxCell id="NX6QIthS7Zr30zZ4aL8O-65" style="edgeStyle=none;rounded=0;orthogonalLoop=1;jettySize=auto;html=1;startArrow=classic;startFill=1;fontSize=24;fontColor=#FF0000;" parent="1" source="NX6QIthS7Zr30zZ4aL8O-57" target="NX6QIthS7Zr30zZ4aL8O-59" edge="1">
                    <mxGeometry relative="1" as="geometry"/>
                </mxCell>
                <mxCell id="NX6QIthS7Zr30zZ4aL8O-57" value="" style="ellipse;whiteSpace=wrap;html=1;aspect=fixed;" parent="1" vertex="1">
                    <mxGeometry x="323" y="884" width="80" height="80" as="geometry"/>
                </mxCell>
                <mxCell id="NX6QIthS7Zr30zZ4aL8O-64" style="edgeStyle=none;rounded=0;orthogonalLoop=1;jettySize=auto;html=1;startArrow=classic;startFill=1;fontSize=24;fontColor=#FF0000;" parent="1" source="NX6QIthS7Zr30zZ4aL8O-58" target="NX6QIthS7Zr30zZ4aL8O-59" edge="1">
                    <mxGeometry relative="1" as="geometry"/>
                </mxCell>
                <mxCell id="NX6QIthS7Zr30zZ4aL8O-58" value="" style="ellipse;whiteSpace=wrap;html=1;aspect=fixed;" parent="1" vertex="1">
                    <mxGeometry x="383" y="1028" width="80" height="80" as="geometry"/>
                </mxCell>
                <mxCell id="NX6QIthS7Zr30zZ4aL8O-59" value="" style="ellipse;whiteSpace=wrap;html=1;aspect=fixed;" parent="1" vertex="1">
                    <mxGeometry x="527" y="884" width="80" height="80" as="geometry"/>
                </mxCell>
                <mxCell id="NX6QIthS7Zr30zZ4aL8O-68" value="节点: n" style="text;html=1;strokeColor=none;fillColor=none;align=left;verticalAlign=middle;whiteSpace=wrap;rounded=0;fontSize=24;fontColor=#FF0000;" parent="1" vertex="1">
                    <mxGeometry x="560" y="340" width="130" height="20" as="geometry"/>
                </mxCell>
                <mxCell id="NX6QIthS7Zr30zZ4aL8O-69" value="边: n - 1" style="text;html=1;strokeColor=none;fillColor=none;align=left;verticalAlign=middle;whiteSpace=wrap;rounded=0;fontSize=24;fontColor=#FF0000;" parent="1" vertex="1">
                    <mxGeometry x="80" y="900" width="130" height="20" as="geometry"/>
                </mxCell>
                <mxCell id="NX6QIthS7Zr30zZ4aL8O-70" value="节点: n" style="text;html=1;strokeColor=none;fillColor=none;align=left;verticalAlign=middle;whiteSpace=wrap;rounded=0;fontSize=24;fontColor=#FF0000;" parent="1" vertex="1">
                    <mxGeometry x="80" y="860" width="130" height="20" as="geometry"/>
                </mxCell>
                <mxCell id="NX6QIthS7Zr30zZ4aL8O-71" value="集成模式" style="text;html=1;strokeColor=none;fillColor=none;align=center;verticalAlign=middle;whiteSpace=wrap;rounded=0;fontSize=32;fontColor=#000000;" parent="1" vertex="1">
                    <mxGeometry x="40" y="40" width="250" height="40" as="geometry"/>
                </mxCell>
            </root>
        </mxGraphModel>
    </diagram>
</mxfile>